<svg xmlns="http://www.w3.org/2000/svg" viewBox="0 0 64 64" width="64" height="64" role="img" aria-label="Crabgic">
<g transform="translate(32 33) scale(0.94) translate(-32 -33)">
  <g stroke="#1B1B45" stroke-width="2.4" stroke-linecap="round" fill="none">
    <path d="M 20 55 L 14 60 M 27 57 L 23 62 M 44 55 L 50 60 M 37 57 L 41 62"/>
  </g>
  <path d="M 32 30 C 44 30 53 37 53 45 C 53 53 44 58 32 58 C 20 58 11 53 11 45 C 11 37 20 30 32 30 Z" fill="#F97036" stroke="#1B1B45" stroke-width="2.2" stroke-linejoin="round" stroke-linecap="round"/>
  <path d="M 32 45 C 40 45 46 48 46 52 C 46 56 39 58 32 58 C 25 58 18 56 18 52 C 18 48 24 45 32 45 Z" fill="#FBB07A" stroke="#1B1B45" stroke-width="0" stroke-linejoin="round" stroke-linecap="round"/>
  <g transform="translate(18 44) scale(1 1) rotate(-14)"><path d="M 0 -5 C -6 -9 -13 -9 -16.5 -3.5 L -9 -0.5 L -15 4 C -12.5 10 -4 10.5 0 5.5 Z" fill="#F97036" stroke="#1B1B45" stroke-width="2.2" stroke-linejoin="round" stroke-linecap="round"/></g>
  <g transform="translate(46 47) scale(-0.85 0.85) rotate(-6)"><path d="M 0 -5 C -6 -9 -13 -9 -16.5 -3.5 L -9 -0.5 L -15 4 C -12.5 10 -4 10.5 0 5.5 Z" fill="#F97036" stroke="#1B1B45" stroke-width="2.588235294117647" stroke-linejoin="round" stroke-linecap="round"/></g>
  <circle cx="24" cy="42" r="6.8" fill="#FFFFFF" stroke="#1B1B45" stroke-width="2.2"/>
  <circle cx="40" cy="42" r="6.8" fill="#FFFFFF" stroke="#1B1B45" stroke-width="2.2"/>
  <circle cx="24.9" cy="42.7" r="3.2" fill="#1B1B45"/>
  <circle cx="40.9" cy="42.7" r="3.2" fill="#1B1B45"/>
  <circle cx="26.4" cy="41" r="1.15" fill="#FFFFFF"/>
  <circle cx="42.4" cy="41" r="1.15" fill="#FFFFFF"/>
  <path d="M 30.9 42 L 33.1 42" stroke="#1B1B45" stroke-width="2" stroke-linecap="round"/>
  <path d="M 28.5 51 Q 32 54.5 35.5 51" stroke="#1B1B45" stroke-width="2.1" fill="none" stroke-linecap="round"/>
  <path d="M 7 30 C 15 23 49 22 58 29 C 51 35 15 36 7 30 Z" fill="#8257E0" stroke="#1B1B45" stroke-width="2.2" stroke-linejoin="round" stroke-linecap="round"/>
  <path d="M 42 4 C 50 8 51 15 45 21 C 41 25 35 27 29 27 C 24 27 20 26 18 25 C 19 15 27 5 38 3.6 C 40 3.4 41 3.5 42 4 Z" fill="#6B3FC9" stroke="#1B1B45" stroke-width="2.2" stroke-linejoin="round" stroke-linecap="round"/>
  <path d="M 42 4 C 49 6 55 10 57 15 C 53 15 49 13 46 15 C 47 11 45 6 42 4 Z" fill="#8257E0" stroke="#1B1B45" stroke-width="2.2" stroke-linejoin="round" stroke-linecap="round"/>
  <path d="M 17.5 24 C 25 27.5 39 27 47 22.5 C 47 25.5 46.5 27.5 45.5 29 C 36 32 25 31 18.5 28.5 Z" fill="#4A2794" stroke="#1B1B45" stroke-width="2.2" stroke-linejoin="round" stroke-linecap="round"/>
  <path d="M 29.5 10.8 L 30.84 14.15 L 34.45 14.39 L 31.68 16.71 L 32.56 20.21 L 29.5 18.29 L 26.44 20.21 L 27.32 16.71 L 24.55 14.39 L 28.16 14.15 Z" fill="#FBBF24" stroke="#1B1B45" stroke-width="1.1" stroke-linejoin="round"/>
  <path d="M 40.5 12.5 A 4.4 4.4 0 1 1 39 8.6 A 3.5 3.5 0 1 0 40.5 12.5 Z" fill="#FBBF24" stroke="#1B1B45" stroke-width="1.1" stroke-linejoin="round"/>
</g>
</svg>
